<svg xmlns="http://www.w3.org/2000/svg">
    <symbol id="telegram" viewBox="0 0 24 24"><path d="M18.96 3.75s1.78-.73 1.63 1.04c-.05.72-.5 3.27-.84 6.02l-1.18 8.16s-.1 1.2-.99 1.4c-.89.2-2.22-.73-2.47-.94-.2-.15-3.7-2.49-4.93-3.63-.34-.31-.74-.94.05-1.66l5.18-5.2c.6-.62 1.18-2.08-1.28-.3l-6.9 4.93s-.8.51-2.28.05l-3.2-1.04s-1.19-.78.83-1.56c4.94-2.44 11-4.93 16.38-7.27Z"/></symbol>
    <symbol id="telegramChat" viewBox="0 0 24 24"><path fill-rule="evenodd" d="M20.6 4.79c.14-1.77-1.64-1.04-1.64-1.04-1.3.57-2.66 1.15-4.03 1.73-4.24 1.82-8.62 3.7-12.35 5.54-2.02.78-.84 1.56-.84 1.56l3.21 1.04c1.48.46 2.27-.05 2.27-.05l6.9-4.94c2.47-1.77 1.88-.31 1.3.31l-5.19 5.2c-.79.72-.4 1.35-.05 1.66.82.76 2.64 2.05 3.83 2.87A5 5 0 0 1 19.3 14l.46-3.2c.18-1.41.38-2.77.55-3.86.15-1.03.27-1.81.3-2.16Z" clip-rule="evenodd"/><path d="M17.68 20.79h3.02v-.58h-3.02v.58Zm0-1.26h4.63v-.58h-4.63v.58Zm0-1.25h4.63v-.58h-4.63v.58ZM16 24v-7.23c0-.2.08-.38.23-.54a.73.73 0 0 1 .53-.23h6.47c.2 0 .38.08.54.23.15.16.23.34.23.54v4.92c0 .2-.08.38-.23.53a.74.74 0 0 1-.54.24h-5.69L16 24Zm.76-1.73.58-.58h5.89v-4.92h-6.47v5.5Z"/></symbol>
    <symbol id="telegramChannel" viewBox="0 0 24 24"><path fill-rule="evenodd" d="M20.6 4.79c.14-1.77-1.64-1.04-1.64-1.04-1.3.57-2.66 1.15-4.03 1.73-4.24 1.82-8.62 3.7-12.35 5.54-2.02.78-.84 1.56-.84 1.56l3.21 1.04c1.48.46 2.27-.05 2.27-.05l6.9-4.94c2.47-1.77 1.88-.31 1.3.31l-5.19 5.2c-.79.72-.4 1.35-.05 1.66.82.76 2.64 2.05 3.83 2.87A5 5 0 0 1 19.3 14l.46-3.2c.18-1.41.38-2.77.55-3.86.15-1.03.27-1.81.3-2.16Z" clip-rule="evenodd"/><path d="M16.32 22.71a4.44 4.44 0 0 1-.97-4.94c.24-.54.56-1.02.97-1.42l.55.54a3.82 3.82 0 0 0-1.1 2.64 3.59 3.59 0 0 0 1.1 2.63l-.55.55Zm1.24-1.23a2.72 2.72 0 0 1-.8-1.95 2.72 2.72 0 0 1 .8-1.94l.55.55a1.96 1.96 0 0 0-.57 1.4 1.97 1.97 0 0 0 .57 1.39l-.55.55Zm1.94-.96c-.27 0-.5-.1-.7-.3a.95.95 0 0 1-.28-.69c0-.27.1-.5.29-.7a1 1 0 0 1 .69-.28c.27 0 .5.1.7.3.19.18.28.42.28.68 0 .28-.1.51-.29.7a.95.95 0 0 1-.69.29Zm1.94.96-.55-.55a2 2 0 0 0 .57-1.4 1.97 1.97 0 0 0-.57-1.4l.55-.54a2.79 2.79 0 0 1 .8 1.94 2.72 2.72 0 0 1-.8 1.95Zm1.24 1.23-.54-.55a3.56 3.56 0 0 0 1.09-2.63 3.85 3.85 0 0 0-1.09-2.64l.54-.54A4.56 4.56 0 0 1 24 19.53a4.35 4.35 0 0 1-1.32 3.18Z"/></symbol>
</svg>
